<?xml version="1.0" standalone="no"?>
<!DOCTYPE svg PUBLIC "-//W3C//DTD SVG 20010904//EN"
 "http://www.w3.org/TR/2001/REC-SVG-20010904/DTD/svg10.dtd">
<svg version="1.0" xmlns="http://www.w3.org/2000/svg"
 width="160.000000pt" height="160.000000pt" viewBox="0 0 160.000000 160.000000"
 preserveAspectRatio="xMidYMid meet">
<metadata>
Created by potrace 1.11, written by Peter Selinger 2001-2013
</metadata>
<g transform="translate(0.000000,160.000000) scale(0.100000,-0.100000)"
fill="#000000" stroke="none">
<path d="M718 1565 c-2 -2 -23 -6 -48 -9 -109 -14 -248 -67 -337 -127 -86 -57
-189 -171 -226 -251 -56 -118 -70 -192 -72 -373 -1 -105 -6 -168 -14 -183 -7
-13 -14 -50 -16 -81 -4 -87 62 -334 111 -408 18 -28 127 -85 147 -77 8 3 34
-3 58 -14 88 -39 91 -39 133 -24 23 8 61 14 85 13 62 -2 148 25 178 55 24 24
25 31 20 92 -10 120 -78 362 -152 542 -27 65 -81 159 -94 161 -56 11 -160 -17
-205 -56 -16 -13 -43 -27 -62 -31 -36 -7 -63 -30 -69 -62 -13 -69 -21 -39 -19
75 2 149 12 185 79 278 123 173 346 282 577 283 256 1 487 -116 611 -311 56
-87 63 -130 57 -337 l-1 -65 -16 50 c-19 65 -25 71 -84 90 -27 9 -49 20 -49
25 0 13 -79 48 -135 60 -81 18 -103 -3 -172 -170 -46 -110 -104 -288 -119
-363 -2 -10 -5 -26 -8 -35 -22 -72 -31 -185 -16 -211 17 -32 95 -63 170 -67
36 -2 85 -10 110 -17 41 -13 48 -12 100 11 30 14 56 29 58 33 2 5 11 4 20 -2
13 -8 32 -4 83 21 64 30 68 34 97 98 64 143 110 343 89 392 -16 36 -33 149
-31 195 9 166 1 231 -43 355 -53 146 -171 274 -329 353 -55 28 -153 63 -200
71 -16 3 -40 8 -54 12 -25 6 -207 13 -212 9z"/>
</g>
</svg>
